<svg width="1280" height="600" viewBox="0 0 1280 600" fill="none" xmlns="http://www.w3.org/2000/svg">
<g clip-path="url(#clip0_703_153)">
<rect width="1280" height="600" fill="white"/>
<circle cx="1105" cy="477" r="16" fill="#D90007"/>
<path d="M1109.66 468.993C1111.5 468.993 1112.99 476.751 1112.99 486.333H1115.67C1115.67 476.017 1112.96 467.667 1109.65 467.667C1107.76 467.667 1106.09 470.169 1104.99 474.099C1103.88 470.169 1102.21 467.667 1100.34 467.667C1097.03 467.667 1094.33 476.01 1094.33 486.326H1097.01C1097.01 476.744 1098.49 468.993 1100.32 468.993C1102.16 468.993 1103.65 476.159 1103.65 485H1106.31C1106.31 476.159 1107.81 468.993 1109.65 468.993" fill="#FFCC00"/>
<circle cx="53" cy="324" r="11" fill="#F7F7F7"/>
<path d="M59.875 324.165C59.875 323.682 59.8327 323.224 59.7601 322.778H52.9251V325.534H56.8386C56.6632 326.438 56.149 327.202 55.3869 327.722V329.555H57.7217C59.0887 328.278 59.875 326.396 59.875 324.165Z" fill="#4285F4"/>
<path d="M52.9251 331.333C54.8848 331.333 56.524 330.673 57.7217 329.555L55.3869 327.722C54.7336 328.162 53.905 328.431 52.9251 328.431C51.0318 328.431 49.4289 327.141 48.8543 325.399H46.4469V327.288C47.6385 329.683 50.0882 331.333 52.9251 331.333Z" fill="#34A853"/>
<path d="M48.8543 325.4C48.7031 324.96 48.6245 324.489 48.6245 324C48.6245 323.511 48.7091 323.041 48.8543 322.601V320.712H46.4469C45.951 321.702 45.6667 322.815 45.6667 324C45.6667 325.186 45.951 326.298 46.4469 327.288L48.8543 325.4Z" fill="#FBBC05"/>
<path d="M52.9251 319.57C53.9957 319.57 54.9514 319.942 55.7075 320.67L57.7761 318.58C56.524 317.394 54.8848 316.667 52.9251 316.667C50.0882 316.667 47.6385 318.317 46.4469 320.712L48.8543 322.601C49.4289 320.859 51.0318 319.57 52.9251 319.57Z" fill="#EA4335"/>
<circle cx="1112" cy="173" r="14" fill="#131921"/>
<path fill-rule="evenodd" clip-rule="evenodd" d="M1118.77 177.6C1119.43 177.518 1120.48 177.569 1120.69 177.838H1120.69C1120.85 178.043 1120.68 178.965 1120.42 179.626C1120.15 180.284 1119.75 180.748 1119.53 180.927C1119.31 181.107 1119.14 181.037 1119.26 180.768C1119.38 180.499 1120.06 178.828 1119.79 178.477C1119.54 178.153 1118.42 178.27 1117.9 178.325C1117.86 178.329 1117.82 178.333 1117.79 178.336C1117.68 178.346 1117.59 178.356 1117.52 178.364C1117.3 178.389 1117.24 178.396 1117.2 178.327C1117.12 178.083 1118.11 177.679 1118.77 177.6ZM1103.17 177.87C1106.24 179.74 1110.97 182.634 1118.53 179.033H1118.53C1118.85 178.897 1119.08 179.124 1118.76 179.536C1118.43 179.952 1115.84 182.333 1111.48 182.333C1107.13 182.333 1103.79 179.353 1102.78 178.117C1102.5 177.796 1102.82 177.651 1103.01 177.769C1103.06 177.802 1103.12 177.836 1103.17 177.87Z" fill="#FF9900"/>
<path fill-rule="evenodd" clip-rule="evenodd" d="M1115.7 164.869C1114.75 163.98 1113.21 163.667 1112.02 163.667C1109.67 163.667 1107.06 164.542 1106.5 167.446C1106.45 167.755 1106.67 167.918 1106.87 167.963L1109.26 168.22C1109.49 168.21 1109.65 167.991 1109.69 167.769C1109.9 166.768 1110.74 166.286 1111.67 166.286C1112.18 166.286 1112.76 166.473 1113.06 166.928C1113.34 167.344 1113.36 167.886 1113.36 168.391L1113.36 168.428L1113.36 168.483L1113.36 168.592L1113.36 168.628L1113.36 168.664L1113.36 168.717V169.037C1113.2 169.054 1113.04 169.072 1112.87 169.089L1112.78 169.098L1112.45 169.132L1112.36 169.141C1111.13 169.269 1109.76 169.434 1108.72 169.894C1107.18 170.561 1106.09 171.926 1106.09 173.93C1106.09 176.497 1107.71 177.779 1109.78 177.779C1111.54 177.779 1112.49 177.365 1113.85 175.983C1113.87 176.016 1113.89 176.047 1113.91 176.078L1113.94 176.115L1113.95 176.133L1113.97 176.169L1114 176.204L1114.08 176.322L1114.1 176.355L1114.12 176.387L1114.13 176.403L1114.15 176.434C1114.42 176.822 1114.65 177.126 1115.26 177.629C1115.44 177.726 1115.67 177.716 1115.84 177.575L1115.84 177.57L1115.85 177.577L1115.86 177.564L1115.93 177.509L1115.99 177.451L1116.08 177.375L1116.13 177.328L1116.21 177.263L1116.3 177.179L1116.42 177.075L1116.48 177.022L1116.58 176.932L1116.69 176.842L1116.79 176.751L1116.87 176.679L1116.96 176.606L1117.04 176.535L1117.1 176.482L1117.18 176.412L1117.26 176.343L1117.32 176.293L1117.38 176.244L1117.42 176.212L1117.47 176.164L1117.51 176.134L1117.56 176.089L1117.59 176.06L1117.64 176.017L1117.68 175.99L1117.71 175.964L1117.74 175.938C1117.94 175.771 1117.91 175.504 1117.75 175.281C1117.72 175.25 1117.7 175.219 1117.68 175.189L1117.65 175.152L1117.64 175.133L1117.58 175.06L1117.56 175.024L1117.53 174.987C1117.15 174.477 1116.82 173.964 1116.82 172.993V169.144C1116.82 169.079 1116.82 169.014 1116.82 168.949L1116.82 168.852L1116.82 168.612C1116.83 167.19 1116.8 165.895 1115.73 164.896L1115.7 164.869ZM1109.69 173.503C1109.69 171.398 1111.57 171.016 1113.36 171.016L1113.36 171.58L1113.36 171.807L1113.36 171.863C1113.36 172.69 1113.33 173.41 1112.9 174.17C1112.5 174.865 1111.88 175.292 1111.19 175.292C1110.24 175.292 1109.69 174.569 1109.69 173.503Z" fill="white"/>
<circle cx="164" cy="171" r="16" fill="black"/>
<path fill-rule="evenodd" clip-rule="evenodd" d="M167.959 160.716C167.959 161.691 167.529 162.666 166.921 163.37C166.275 164.148 165.16 164.728 164.273 164.728C164.172 164.728 164.071 164.716 164.007 164.703C163.995 164.654 163.969 164.506 163.969 164.358C163.969 163.37 164.489 162.395 165.046 161.778C165.755 160.975 166.933 160.37 167.921 160.333C167.947 160.444 167.959 160.58 167.959 160.716ZM171.444 166.859C171.469 166.843 171.485 166.832 171.493 166.826C170.176 164.987 168.175 164.938 167.617 164.938C166.766 164.938 166.003 165.232 165.362 165.48C164.898 165.659 164.497 165.814 164.172 165.814C163.814 165.814 163.403 165.653 162.946 165.472C162.368 165.245 161.714 164.987 160.993 164.987C158.561 164.987 156.091 166.95 156.091 170.653C156.091 172.962 157.003 175.393 158.13 176.961C159.105 178.295 159.954 179.381 161.17 179.381C161.747 179.381 162.17 179.206 162.614 179.022C163.107 178.818 163.627 178.603 164.413 178.603C165.206 178.603 165.681 178.805 166.138 179C166.564 179.181 166.976 179.356 167.617 179.356C168.947 179.356 169.821 178.183 170.657 177.011C171.595 175.677 171.987 174.369 172 174.307C171.924 174.283 169.378 173.283 169.378 170.456C169.378 168.18 171.112 167.071 171.444 166.859Z" fill="white"/>
<circle cx="1221" cy="322" r="16" fill="#171717"/>
<path fill-rule="evenodd" clip-rule="evenodd" d="M1215.68 311.604C1215.63 311.583 1215.11 311.377 1215.04 311.348C1215.03 311.347 1215.03 311.345 1215.02 311.343C1215.02 311.34 1215.02 311.341 1215.02 311.339C1215.01 311.336 1215 311.335 1215 311.333C1215 311.493 1215 311.729 1215 311.981C1215 312.303 1215 312.646 1215 312.816C1215 313.144 1215 313.988 1215 314.3C1215 314.903 1215 319.544 1215 319.869C1215 320.185 1215 332.332 1215 332.667C1216.7 332.467 1217.55 332.389 1219.28 332.312C1219.28 331.987 1219.28 328.766 1219.28 328.297C1219.28 325.585 1219.28 323.676 1219.28 322.624C1219.28 322.182 1219.28 322.018 1219.28 321.564C1219.15 321.201 1218.6 319.663 1218.46 319.275C1218.19 318.536 1216.68 314.366 1216.56 314.032C1216.45 313.733 1216.15 312.901 1216.06 312.634C1216 312.48 1215.85 312.077 1215.78 311.862C1215.71 311.694 1215.72 311.708 1215.68 311.604" fill="#AF1F1F"/>
<path fill-rule="evenodd" clip-rule="evenodd" d="M1226.32 332.396C1226.37 332.417 1226.89 332.623 1226.96 332.652C1226.97 332.653 1226.97 332.655 1226.98 332.657C1226.98 332.66 1226.98 332.659 1226.98 332.66C1226.99 332.664 1227 332.665 1227 332.666C1227 332.507 1227 332.271 1227 332.019C1227 331.697 1227 331.354 1227 331.184C1227 330.856 1227 330.012 1227 329.7C1227 329.097 1227 324.456 1227 324.131C1227 323.815 1227 311.668 1227 311.333C1226.66 311.333 1223.26 311.333 1222.72 311.333C1222.72 311.658 1222.72 315.234 1222.72 315.703C1222.72 318.415 1222.72 320.324 1222.72 321.375C1222.72 321.818 1222.72 321.982 1222.72 322.436C1222.85 322.799 1223.4 324.337 1223.54 324.725C1223.81 325.464 1225.32 329.634 1225.44 329.968C1225.55 330.267 1225.85 331.099 1225.94 331.365C1226 331.52 1226.15 331.923 1226.22 332.138C1226.29 332.306 1226.28 332.292 1226.32 332.396" fill="#AF1F1F"/>
<path fill-rule="evenodd" clip-rule="evenodd" d="M1219.28 311.333H1215L1222.59 332.312C1224.72 332.364 1227 332.667 1227 332.667L1219.28 311.333" fill="#E50914"/>
<circle cx="200" cy="457" r="14" fill="#0A66C2"/>
<path d="M207.582 463.417H204.683V458.869C204.683 457.785 204.664 456.389 203.176 456.389C201.666 456.389 201.435 457.571 201.435 458.79V463.416H198.536V454.065H201.319V455.343H201.358C201.925 454.373 202.982 453.791 204.104 453.833C207.042 453.833 207.583 455.768 207.583 458.287L207.582 463.417Z" fill="white"/>
<path d="M195.266 452.787C195.266 452.787 195.266 452.787 195.265 452.787C194.343 452.787 193.583 452.026 193.583 451.102C193.583 450.177 194.343 449.417 195.265 449.417C196.188 449.417 196.947 450.177 196.948 451.101C196.948 451.102 196.948 451.102 196.948 451.102C196.948 452.026 196.188 452.787 195.266 452.787" fill="white"/>
<path d="M196.715 463.417H193.813V454.065H196.715V463.417Z" fill="white"/>
</g>
<defs>
<clipPath id="clip0_703_153">
<rect width="1280" height="600" fill="white"/>
</clipPath>
</defs>
</svg>
